#!OML:ASF F:\VICON\USERDATA\INSTALL\rory3\rory3.ASF
:FULLY-SPECIFIED
:DEGREES
127
root 0.8342033582076152 18.140051821920995 36.39799978064194 1.686693209440587 0.924070699769804 -2.2922031906319753
lfemur -27.49357937487631 -5.234556672549683 -17.777939397274775
ltibia 22.437785239213397
lfoot 3.7320557651534365 -4.700947436817526
ltoes -18.966618212738517
rfemur -14.760189885131657 1.390321064594168 25.086806302396432
rtibia 50.36483162210242
rfoot 26.622879859728215 -11.308874361289524
rtoes 1.3819835750217706
lowerback nan -1.4631567590667722 -0.8839573168405908
upperback -0.3129008245842866 2.316620253167417 -0.3788331614283629
thorax -6.5757476915607915 -0.060681358778290506 1.4355771680665943
lowerneck -17.44681848924769 -5.657317340864092 -2.1397992556177723
upperneck 10.743001118451742 -5.6307219721793516 4.355978632163206
head 6.223461164170598 -3.087248121426456 1.0860673619843504
lclavicle -2.6537170241665044e-14 2.040242392368403e-15
lhumerus -61.64639503465879 -2.955747235985374 89.0531940292781
lradius 114.29777206300815
lwrist 34.53235745047361
lhand -26.050073351475046 -0.40476983452275395
lfingers nan
lthumb 0.4165462016249535 29.132072349608453
rclavicle -2.1768837631773603e-14 1.4171304463122986e-15
rhumerus -49.453841978401634 15.910883798410836 -99.47224825797848
rradius 120.75692750033336
rwrist -17.6189416086637
rhand -19.233768366280607 nan
rfingers nan
rthumb 6.842757518930652 17.567581469458464
128
root 0.8018827275664525 18.035281551525667 36.68718387833239 1.2889282642178883 1.8322368960282451 -2.041365926773336
lfemur -27.367396115878392 -4.31110253618178 -18.567330584854293
ltibia 24.194491354847344
lfoot 3.3996986638844295 -7.408815348911077
ltoes -16.36173293431643
rfemur -15.985542609545186 0.27181114002819484 25.034712023200978
rtibia 54.34647331434576
rfoot 26.420379998345 -11.083269805780997
rtoes -1.1403396705212483
lowerback nan -1.6980861984638302 -1.0057219137170685
upperback -0.26353325508819836 2.0050673573155113 -0.37404363292031406
thorax -7.017374059637666 -0.20985559144988797 1.491474769468522
lowerneck -17.232678825081408 -5.688500241215624 -2.2192957970075358
upperneck 10.461867776807184 -5.678509691475572 4.62783267918211
head 6.139372280146054 -3.1033670691021378 1.1652542562703803
lclavicle -5.547709613599563e-14 1.941865617349237e-14
lhumerus -60.78666373754965 -3.270476938481963 89.36402728046804
lradius 115.06729537551416
lwrist 34.17794489870794
lhand -26.356500873735566 0.757387497871826
lfingers nan
lthumb 0.06757434887399372 30.235452892611807
rclavicle -5.114596922171641e-14 1.9060359154679895e-14
rhumerus -50.19460384112195 15.526679398211297 -100.11186697254796
rradius 118.82620149995819
rwrist -18.183545290536927
rhand -19.09744919267098 nan
rfingers nan
rthumb 6.984909950019118 18.209274765872323
129
root 0.7666816839186774 17.930166910016464 36.58736988829956 0.8917019164188535 2.578586551786054 -2.0132266542163717
lfemur -27.341988780036843 -3.482156795580957 -19.014687233762555
ltibia 26.690657190380936
lfoot 2.9955304112490326 -10.118790248600474
ltoes -7.874169300869615
rfemur -17.378180279083466 -0.8240593330055215 25.23214006649542
rtibia 58.35008645683784
rfoot 26.485054548151858 -10.663365978235891
rtoes 1.3759990009577643
lowerback nan -1.919132010606321 -0.9733566161341685
upperback -0.04794720816273834 1.718225329197607 -0.29071908793326595
thorax -6.999591095211544 -0.35023632307685537 1.5960992105149927
lowerneck -17.22176382539611 -5.710232998748794 -2.2185275213329447
upperneck 9.906090805382279 -5.692118309758677 4.672248626851547
head 5.986916888575072 -3.110156163502644 1.1797582149486838
lclavicle 3.383880432809827e-14 -3.007615577284209e-16
lhumerus -59.47168747176877 -3.7225320055177793 89.69707422414187
lradius 115.79972974085601
lwrist 33.86452084040212
lhand -26.54482577698056 1.2901029761968479
lfingers nan
lthumb -0.18255266235457857 30.72280237870483
rclavicle 3.7991881231757735e-14 -8.054579104389213e-16
rhumerus -50.537171922358965 15.213585802249233 -100.40440803537072
rradius 116.69178442195376
rwrist -19.396718866017824
rhand -18.98616127235484 nan
rfingers nan
rthumb 7.082864062159987 17.974069695714043
130
root 0.7502691772124539 17.848549069059175 36.77759829399382 0.6758939549760807 3.052167877897201 -1.6556793459930985
lfemur -27.402010791809 -2.825550831511508 -19.842090546532916
ltibia 29.91895203693492
lfoot 1.454610938277146 -12.51344456978433
ltoes 2.087616675792738
rfemur -18.8445310723912 -1.813718669874802 24.601821015479374
rtibia 62.318096875831934
rfoot 26.62261390617995 -9.79351797211654
rtoes 10.868591696455967
lowerback nan -2.0676492473513224 -1.2899210440475715
upperback 0.16275726244500832 1.4497996141705851 -0.28979472016866725
thorax -6.744393767459319 -0.4657435385982599 1.7635633371789927
lowerneck -17.25337344219304 -5.691482435488631 -2.1462241623322704
upperneck 9.463710961359348 -5.66809133858152 4.687467537672484
head 5.857791646765866 -3.097877754560601 1.1764744039656787
lclavicle 1.380035076316477e-14 1.228956655247322e-16
lhumerus -58.16208030306224 -4.154788416968 89.95258650855023
lradius 116.71072024751159
lwrist 33.480229159920476
lhand -26.889263812715413 0.7735441864355401
lfingers nan
lthumb -0.5091023841226419 30.229541898868863
rclavicle 1.795432167958819e-14 -2.380282647664064e-16
rhumerus -50.97779139525405 14.872491635858943 -100.78313851698582
rradius 114.76592721502412
rwrist -19.951159163079954
rhand -19.19436735232479 nan
rfingers nan
rthumb 6.872560974293398 16.350425244672266
